# xmcd
#
# Track frame offsets:
#	150
#	13674
#	28007
#	41262
#	53459
#	65449
#	85319
#	95418
#	111559
#	128184
#	140777
#	155613
#	167877
#	177710
#	192764
#
# Disc length: 2786 seconds
#
# Revision: 1
# Processed by: cddbd v1.5.1PL2 Copyright (c) Steve Scherf et al.
# Submitted via: audiograbber 1.83.01
#
DISCID=d10ae00f
DTITLE=Edvaldo Costa/Naldinho - Dunas de Marapé
DYEAR=2006
DGENRE=Foró
TTITLE0=Benedita Aparecida
TTITLE1=5 Bichos que a mulher mais gosta
TTITLE2=5 Bichos que o homem mais gosta
TTITLE3=O pau quebrou (An ran)
TTITLE4=Eu boto ou não boto (Bujão)
TTITLE5=Cabritinha
TTITLE6=Gemidinho
TTITLE7=Liberi o Tonho
TTITLE8=Os dez mandamentos do amor
TTITLE9=Dunas de Marapé
TTITLE10=Bay Bay Maceió
TTITLE11=Xote do Turista
TTITLE12=Saudades de Maceió
TTITLE13=Minha Sereia
TTITLE14=A Partida
EXTD=
EXTT0=
EXTT1=
EXTT2=
EXTT3=
EXTT4=
EXTT5=
EXTT6=
EXTT7=
EXTT8=
EXTT9=
EXTT10=
EXTT11=
EXTT12=
EXTT13=
EXTT14=
PLAYORDER=
